# xmcd CD database file
#
# Track frame offsets:
#	150
#	25262
#	57395
#	81291
#	108422
#	134070
#	166198
#	198991
#	232694
#	278288
#
# Disc length: 4791 seconds
#
# Revision: 0
# Processed by: cddbd v1.5.2PL0 Copyright (c) Steve Scherf et al.
# Submitted via: CDex 1.51
#
DISCID=7c12b50a
DTITLE=Chico Freeman - Elvin
DYEAR=2011
DGENRE=Jazz
TTITLE0=Elvin
TTITLE1=Inner Urge
TTITLE2=E.J.'s Blues
TTITLE3=After The Rain
TTITLE4=Night Dreamer
TTITLE5=Think On Me
TTITLE6=Lonnie's Lament
TTITLE7=Mahjong
TTITLE8=Video Track 09
TTITLE9=Video Track 10
EXTD=YEAR: 2011
EXTT0=
EXTT1=
EXTT2=
EXTT3=
EXTT4=
EXTT5=
EXTT6=
EXTT7=
EXTT8=
EXTT9=
PLAYORDER=
